<?xml version="1.0" encoding="UTF-8"?>
<svg id="Layer_1" data-name="Layer 1" xmlns="http://www.w3.org/2000/svg" viewBox="0 0 155.47 81.61">
  <defs>
    <style>
      .cls-1 {
        fill: #dd0e0e;
      }

      .cls-2 {
        font-size: 11.5px;
        letter-spacing: .2em;
      }

      .cls-2, .cls-3 {
        font-family: AGaramondPro-Regular, 'Adobe Garamond Pro';
      }

      .cls-4 {
        letter-spacing: .29em;
      }

      .cls-5 {
        letter-spacing: .31em;
      }

      .cls-6 {
        letter-spacing: .31em;
      }

      .cls-3 {
        font-size: 14px;
      }

      .cls-7 {
        letter-spacing: .3em;
      }
    </style>
  </defs>
  <g>
    <path class="cls-1" d="m8.04,31.71s.07.05.1.08h25.15c-1.18-.84-2.48-1.73-3.9-2.67l-2.96-2.03c-3.45-2.28-6.01-4.08-7.67-5.41-1.66-1.32-2.96-2.79-3.88-4.39-.92-1.6-1.39-3.48-1.39-5.64,0-2.9.94-5.19,2.82-6.89,1.88-1.69,4.33-2.54,7.35-2.54s5.78.94,8.09,2.82c2.31,1.88,4.1,4.33,5.36,7.35,1.26,3.02,2.02,6.19,2.27,9.52h2.13c0-9.92.15-16.95.46-21.08h-2.13c-.18,1.42-.43,2.45-.74,3.1-.31.65-.74.97-1.29.97-.37,0-.82-.12-1.34-.37-.52-.25-1.13-.55-1.8-.92-1.97-1.17-3.91-2.06-5.82-2.68-1.91-.62-4.47-.92-7.67-.92-3.76,0-7.21.62-10.35,1.85-3.14,1.23-5.66,3.13-7.54,5.69C1.4,10.09.46,13.22.46,16.92c0,3.21.71,6.03,2.13,8.46,1.42,2.44,3.24,4.55,5.45,6.33Z"/>
    <path class="cls-1" d="m27.57,46.45c2.14,2.44,3.22,5.35,3.22,8.75s-1.08,5.89-3.24,7.67c-2.16,1.79-4.9,2.68-8.23,2.68-5.49,0-9.55-2.14-12.2-6.43-2.1-3.4-3.49-7.63-4.2-12.68H.36c-.02,10.45-.15,17.41-.36,20.86h2.13c.18-1.42.43-2.45.74-3.1.31-.65.74-.97,1.29-.97.74,0,1.79.43,3.14,1.29,1.91,1.05,4.01,1.88,6.29,2.5,2.28.62,5.15.92,8.6.92,4.25,0,8.12-.68,11.6-2.03,3.48-1.36,6.24-3.37,8.27-6.06,2.03-2.68,3.05-5.99,3.05-9.94,0-1.22-.1-2.37-.3-3.48h-17.25Z"/>
  </g>
  <g>
    <path class="cls-1" d="m81.15,59.54c-.37-1.69-.55-4.36-.55-8v-5.09h-2.13v6.2c0,3.14-.17,5.52-.51,7.12-.34,1.6-.99,2.77-1.94,3.51-.96.74-2.45,1.26-4.48,1.57v1.85c1.97-.18,4.65-.28,8.04-.28,4.25,0,7.58.09,9.99.28v-1.85c-2.77-.31-4.78-.85-6.01-1.62-1.23-.77-2.03-2-2.4-3.7Z"/>
    <path class="cls-1" d="m77.96,5.96c.34,1.05.51,2.74.51,5.08v20.74h2.13V7.26l10.29,24.53h15.97L94.18,1.25c-4.07.18-8.94.28-14.61.28-3.39,0-6.07-.09-8.04-.28v1.85c2.03.12,3.53.37,4.48.74.96.37,1.6,1.08,1.94,2.13Z"/>
    <path class="cls-1" d="m120.42,31.79l8.89-23.24v23.24h14.7V11.05c0-2.34.17-4.04.51-5.08.34-1.05.97-1.76,1.9-2.13.92-.37,2.43-.62,4.53-.74v-1.85c-3.39.18-8.23.28-14.52.28h-6.56l-11.51,30.27h2.06Z"/>
    <polygon class="cls-1" points="97.02 46.45 105.55 66.8 107.03 66.8 114.82 46.45 97.02 46.45"/>
    <path class="cls-1" d="m144.52,61.99c-.34-1.05-.51-2.74-.51-5.08v-10.46h-14.7v10.46c0,2.34-.18,4.04-.55,5.08-.37,1.05-1.06,1.76-2.08,2.13-1.02.37-2.64.62-4.85.74v1.85c3.14-.18,8.01-.28,14.61-.28s11.12.09,14.52.28v-1.85c-2.03-.12-3.53-.37-4.48-.74-.96-.37-1.6-1.08-1.94-2.13Z"/>
  </g>
  <g>
    <path d="m48.18,27.05c.65,0,1.24-.71,2.3-.71,2.65,0,2.12,3.12,2.12,4.88,0,.15,0,.34-.02.56h7.42c.15-3.3.75-5.45,3.19-5.45,1.06,0,2.24.53,2.71.53,1.24,0,1.24-2.24,1.24-3.06,0-2-.06-3.59-2.3-3.59-.77,0-1.47.29-2.24.29-.88,0-1.18-.71-1.18-1.77,0-.71,1.77-4.3,1.77-5.89,0-1.12-.29-1.24-.71-1.24-1.18,0-7.77,1.65-8.06,3.88-.29,2.06-.47,4.94-2.3,4.94-.47,0-.88-.24-1.12-.24-2.24,0-3.53.53-3.53,5,0,1.06-.06,1.82.71,1.82Z"/>
    <path d="m52.38,46.45c.28,5.05,1.03,12.32,2.69,12.32,1.35,0,8.18-3.3,8.18-4.18,0-.69-1.57-2.15-2.55-8.14h-8.33Z"/>
  </g>
  <text class="cls-2" transform="translate(81.11 77.54)"><tspan x="0" y="0">Consulting</tspan></text>
  <text class="cls-3" transform="translate(11.52 43.58)"><tspan class="cls-4" x="0" y="0">S</tspan><tspan class="cls-6" x="10.85" y="0">tan the </tspan><tspan class="cls-7" x="86.93" y="0">M</tspan><tspan class="cls-5" x="103.87" y="0">ann</tspan></text>
</svg>