<?xml version="1.0" encoding="utf-8" ?>
<svg xmlns="http://www.w3.org/2000/svg" xmlns:xlink="http://www.w3.org/1999/xlink" width="1163" height="1163">
	<path fill="#1ED0D1" transform="scale(2.27148 2.27148)" d="M120.314 424.31L108.411 424.331C83.4429 424.35 79.0791 413.336 79.0969 390.178L79.0925 351.611C79.0807 348.691 78.8627 345.611 79.1029 342.71C79.3907 339.235 83.2354 336.998 86.0239 339.775C87.4731 341.218 86.7916 345.637 86.783 347.61L86.7613 386.464C86.7592 409.824 85.5477 416.526 111.258 416.395L126.671 416.387C122.853 417.997 104.168 417.502 99.5258 416.773C82.4593 414.094 86.6432 396.266 86.7971 384.681C86.8583 380.079 87.3352 364.1 84.2067 362.058C83.9851 361.913 79.4054 360.061 79.9327 361.529L79.4414 361.364C78.4686 370.464 78.406 398.692 80.3479 406.317C86.8253 431.748 113.448 420.241 120.644 423.942L120.314 424.31Z"/>
	<path fill="#401ECE" transform="scale(2.27148 2.27148)" d="M298.012 314.569C300.396 314.32 302.9 314.542 305.301 314.554L333.251 314.559C336.531 314.558 346.024 313.203 344.476 319.257C344.099 320.734 343.276 321.478 342.01 322.235C339.377 322.379 336.663 322.246 334.023 322.248L317.395 322.254C312.269 322.255 303.578 322.752 298.96 322.033C294.33 321.312 294.435 316.529 298.012 314.569Z"/>
	<path fill="#401ECE" transform="scale(2.27148 2.27148)" d="M298.012 348.501C301.623 348.296 305.357 348.493 308.981 348.493L361.846 348.499C368.196 348.5 381.51 346.026 383.861 352.212C383.331 354.183 382.73 355.357 380.75 356.264L307.911 356.286C304.433 356.309 293.876 357.892 295.583 351.384C295.951 349.983 296.823 349.234 298.012 348.501Z"/>
	<path fill="#1ED0D1" transform="scale(2.27148 2.27148)" d="M292.857 196.688L377.203 196.692C379.921 196.69 390.114 195.328 390.62 199.452C391.532 206.888 374.805 204.249 370.257 204.25L218.375 204.253L135.784 204.259C132.059 204.266 120.428 206.099 120.543 200.037C120.648 194.459 139.957 196.679 144.132 196.681L292.857 196.688Z"/>
	<path fill="#1ED0D1" transform="scale(2.27148 2.27148)" d="M123.098 232.011C129.746 231.609 136.652 232.005 143.327 232.006L368.675 232.002C372.062 232 385.314 231.564 387.577 232.127C391.97 233.221 391.13 238.073 387.756 239.76C368.38 240.109 348.928 239.754 329.544 239.753L132.68 239.761C129.426 239.763 119.353 241.3 120.664 235.145C120.975 233.682 121.914 232.821 123.098 232.011Z"/>
	<path fill="#401ECE" transform="scale(2.27148 2.27148)" d="M425.577 243.678L425.807 243.425C437.545 230.694 433.155 273.452 433.155 277.252L433.148 381.877C433.149 388.654 433.643 396.148 433.12 402.824C431.652 421.578 415.552 424.351 400.931 424.322L120.314 424.31L120.644 423.942C113.448 420.241 86.8253 431.748 80.3479 406.317C78.406 398.692 78.4686 370.464 79.4414 361.364L79.9327 361.529C79.4054 360.061 83.9851 361.913 84.2067 362.058C87.3352 364.1 86.8583 380.079 86.7971 384.681C86.6432 396.266 82.4593 414.094 99.5258 416.773C104.168 417.502 122.853 417.997 126.671 416.387L400.99 416.407C416.111 416.574 425.77 414.193 425.631 396.603L425.572 260.604C425.571 255.025 425.236 249.231 425.577 243.678Z"/>
	<defs>
		<linearGradient id="gradient_0" gradientUnits="userSpaceOnUse" x1="223.06006" y1="408.58316" x2="169.21498" y2="273.60632">
			<stop offset="0" stop-color="#2422D6"/>
			<stop offset="1" stop-color="#4F40D5"/>
		</linearGradient>
	</defs>
	<path fill="url(#gradient_0)" transform="scale(2.27148 2.27148)" d="M133.653 288.013C141.83 287.62 150.241 288.012 158.441 288.013L242.73 288.005C268.99 287.968 270.592 285.462 270.551 315.498L270.555 372.295C270.564 382.281 272.273 393.514 258.438 393.839L147.163 393.828C123.457 393.943 121.337 393.417 121.338 371.282L121.343 316.727C121.346 305.784 118.515 289.746 133.653 288.013ZM146.414 295.861C131.743 295.798 128.96 292.769 128.92 308.704L128.928 372.65C128.94 389.425 131.588 386.376 146.741 386.362L246.125 386.346C265.791 386.453 262.969 389.496 262.961 369.481L262.95 347.45C262.942 332.008 263.356 316.461 262.956 301.033C262.759 293.433 255.405 295.809 249.417 295.836L146.414 295.861Z"/>
	<path fill="#1ED0D1" transform="scale(2.27148 2.27148)" d="M100.65 87.2907L398.99 87.2759C407.749 87.2699 416.973 86.235 424.222 92.1982C435.069 101.121 433.156 113.924 433.16 126.47L433.16 193.644C433.16 197.462 434.243 214.829 432.149 217.231C426.981 223.161 425.535 213.878 425.569 210.123L425.58 199.983C425.578 188.854 425.415 177.704 425.577 166.577C413.347 166.947 400.982 166.581 388.74 166.581L315.438 166.577L86.7752 166.577L86.7811 291.767C86.7829 293.362 89.3826 320.102 80.7931 313.3C77.8405 310.962 79.1307 303.11 79.1197 299.845L79.1055 118.894C79.0483 102.76 81.4225 89.0188 100.65 87.2907ZM100.65 94.9851C83.7969 97.532 86.7647 114.306 86.7619 126.939L86.7752 159.061L412.125 159.061L425.577 159.061L425.585 125.531C425.58 100.438 427.185 94.9863 397.827 94.9814L121.599 94.9806C114.796 94.9717 107.38 94.1792 100.65 94.9851Z"/>
	<path fill="#1ED0D1" transform="scale(2.27148 2.27148)" d="M389.511 107.232C395.64 107 411.639 126.396 411.555 128.266C411.453 130.542 395.868 145.073 392.999 147.587C392.337 147.999 391.636 148.333 390.94 148.685C382.306 145.527 389.293 140.357 393.15 136.605C396.026 133.807 398.852 130.955 401.686 128.113C398.891 124.895 395.726 121.893 392.681 118.913C389.119 115.426 383.48 111.259 389.511 107.232Z"/>
	<path fill="#1ED0D1" transform="scale(2.27148 2.27148)" d="M214.083 110.322C235.35 108.809 239.672 139.785 217.944 143.6C195.444 145.055 191.821 113.677 214.083 110.322ZM214.083 118.341C202.439 121.432 206.251 137.764 217.944 135.792C227.292 132.836 228.169 118.297 214.083 118.341Z"/>
	<path fill="#1ED0D1" transform="scale(2.27148 2.27148)" d="M165.971 110.322C187.316 108.01 193.138 138.278 170.727 143.6C149.248 146.355 143.355 114.806 165.971 110.322ZM167.493 118.341C156.061 119.669 157.381 137.366 169.065 135.792C180.448 134.064 180.245 118.375 167.493 118.341Z"/>
	<path fill="#1ED0D1" transform="scale(2.27148 2.27148)" d="M117.399 110.322C138.572 107.998 145.112 136.137 123.098 143.6C101.917 147.08 94.1606 115.17 117.399 110.322ZM120.314 118.341C107.282 118.967 108.617 135.527 121.348 135.792C133.722 133.244 128.618 116.12 120.314 118.341Z"/>
</svg>
