<?xml version="1.0" encoding="utf-8" ?>
<svg xmlns="http://www.w3.org/2000/svg" xmlns:xlink="http://www.w3.org/1999/xlink" width="1024" height="1024">
	<path fill="#FFF2E2" transform="scale(2 2)" d="M367.211 425.333C350.745 425.656 334.203 425.337 317.731 425.336L169.235 425.326C162.112 425.33 151.349 425.938 144.661 425.057C129.527 423.065 118.059 410.95 116.572 395.779C116.057 390.519 116.423 384.977 116.434 379.682L116.443 130.244C116.444 124.531 116.144 118.604 116.749 112.925C118.335 98.0384 130.521 87.6025 145.138 86.3145C148.941 86.0281 152.969 86.2951 156.792 86.2988L351.462 86.3013C370.215 86.2863 389.808 88.4476 394.686 111.434C395.825 116.803 395.473 122.731 395.47 128.198L395.463 375.627C395.474 399.214 395.728 419.655 367.211 425.333ZM185.661 95.886L161.292 95.8752C137.657 95.878 126.279 95.4084 126.27 124.816L126.102 391.78C126.115 398.631 128.076 404.397 133.046 409.255C141.713 417.728 152.375 415.83 163.42 415.822L325.875 415.828L349.083 415.84C373.175 415.84 385.451 416.034 385.475 385.651L385.504 119.236C385.465 95.2025 363.814 95.8579 346.288 95.886L185.661 95.886Z"/>
	<path fill="#FFF2E2" transform="scale(2 2)" d="M262.696 108.059C260.201 108.12 249.888 108.457 247.98 107.794C245.301 106.863 246.575 104.168 248.636 103.526C251.051 103.531 261.94 103.191 263.248 103.552C266.118 104.344 264.815 107.319 262.696 108.059Z"/>
	<path fill="#FFF2E2" transform="scale(2 2)" d="M362.813 384.518C359.868 384.783 356.823 384.543 353.864 384.534L167.515 384.527C147.661 384.552 137.709 388.215 137.707 364.625L137.706 149.911C137.703 137.5 133.977 118.173 150.127 115.494C153.746 115.275 157.5 115.476 161.134 115.48L346.176 115.486C367.792 115.461 374.549 114.39 374.548 136.706L374.547 352.249C374.547 364.077 378.266 382.141 362.813 384.518ZM150.917 125.453C144.946 127.318 147.504 148.247 147.51 154.102L147.501 360.657C147.5 363.117 146.174 373.538 148.714 374.531C151.523 375.629 208.141 375.044 218.018 375.043L362.813 375.037C366.429 373.34 364.65 357.627 364.65 353.353L364.657 152.489C364.657 146.121 365.592 133.086 364.112 127.262C361.758 124.366 354.117 125.448 350.81 125.447L165.518 125.449C160.663 125.448 155.767 125.31 150.917 125.453Z"/>
	<path fill="#FFF2E2" transform="scale(2 2)" d="M164.648 157.692C160.996 158.038 157.411 155.676 158.757 151.475C159.613 148.801 172.055 135.861 175.771 134.043C179.423 133.537 183.136 136.056 181.725 140.041C180.724 142.867 167.388 156.253 164.648 157.692Z"/>
	<path fill="#FFF2E2" transform="scale(2 2)" d="M165.725 180.778C161.835 180.508 158.497 177.235 160.984 173.241C163.059 169.909 183.53 151.08 187.957 146.29C191.163 142.823 196.129 135.263 200.753 134.043C214.239 135.372 199.759 147.949 196.494 151.453C191.859 156.428 171.56 179.159 165.725 180.778Z"/>
	<path fill="#FFF2E2" transform="scale(2 2)" d="M258.787 408.83C247.784 412.181 242.229 395.888 253.26 391.311C265.746 390.097 270.111 403.652 258.787 408.83Z"/>
</svg>
