<?xml version="1.0" encoding="utf-8" ?>
<svg xmlns="http://www.w3.org/2000/svg" xmlns:xlink="http://www.w3.org/1999/xlink" width="1024" height="1024">
	<path fill="#DFFFF1" transform="scale(2 2)" d="M153.806 161.409C149.419 153.705 152.629 144.325 153.049 135.997C153.852 120.036 150.321 104.08 161.198 90.3236C168.125 81.5632 178.472 76.5464 189.424 75.2361C198.529 74.7307 207.725 75.2421 216.841 75.2433L304.832 75.2274C311.854 75.2218 319.314 74.7172 326.232 75.9939C345.379 79.5276 359.072 95.929 359.611 115.372C359.814 122.712 359.632 130.103 359.627 137.447L359.634 387.392C359.63 391.966 359.807 396.637 359.175 401.175C356.319 421.669 339.188 435.983 318.679 436.392L205.614 436.4C198.561 436.4 191.362 436.781 184.422 435.334C160.112 430.262 152.928 411.792 152.964 390.026L152.985 319.902C152.983 288.183 153.37 256.417 152.968 224.703C152.874 217.262 150.497 204.377 151.798 197.409C152.099 195.798 153.453 194.288 153.414 192.624C153.378 191.07 151.945 189.98 151.806 188.389C151.575 185.737 151.762 182.909 151.761 180.241L151.764 164.158L153.806 161.409ZM190.459 84.4545C162.272 88.0062 161.758 109.14 161.755 131.859L161.75 385.159C161.742 403.694 163.952 423.64 187.652 426.899C194.311 427.815 202.207 427.254 209.003 427.253L314.548 427.269C317.272 427.28 320.097 427.445 322.811 427.242C350.572 420.621 350.504 403.733 350.515 379.781L350.541 126.457C350.543 120.424 350.993 114.014 349.552 108.115C344.026 85.4935 325.943 84.4207 307.604 84.4362L190.459 84.4545Z"/>
	<path fill="#DFFFF1" transform="scale(2 2)" d="M240.203 105.505C236.346 103.318 235.236 98.3985 240.203 96.4839C245.786 96.3258 251.396 96.5565 256.983 96.5179C260.939 96.4906 274.825 94.4027 276.294 99.67C277.063 102.432 275.45 104.788 272.835 105.505L250.684 105.517C247.256 105.528 243.587 105.972 240.203 105.505Z"/>
	<path fill="#DFFFF1" transform="scale(2 2)" d="M225.375 104.99C217.049 105.941 211.757 101.198 218.081 97.3342C221.616 97.2095 228.899 96.2537 227.613 102.172C227.324 103.499 226.487 104.3 225.375 104.99Z"/>
	<path fill="#DFFFF1" transform="scale(2 2)" d="M293.695 104.99C281.843 105.359 283.814 98.1328 289.731 97.3342C300.364 96.8347 299.248 103.854 293.695 104.99Z"/>
	<path fill="#DFFFF1" transform="scale(2 2)" d="M326.939 379.81L196.102 379.781C176.83 379.765 171.83 380.937 171.835 356.89L171.836 149.735C171.808 137.193 168.564 121.13 185.443 118.476C188.325 118.319 191.284 118.462 194.172 118.466L305.951 118.475C317.56 118.47 338.302 114.839 340.649 131.2C341.04 133.922 340.765 137.05 340.765 139.812L340.778 349.552C340.779 362.215 344.29 377.799 326.939 379.81ZM216.686 127.589L197.171 127.577C191.202 127.577 180.811 125.679 180.616 134.384C180.335 146.892 180.642 159.489 180.642 172.004L180.647 327.037C180.648 333.529 178.888 366.26 182.366 369.661C184.577 371.824 197.788 370.932 200.86 370.932L295.875 370.929L315.849 370.951C321.271 370.956 328.256 372.62 331.969 367.694L331.965 159.621C331.966 150.83 332.507 141.635 331.742 132.888C331.073 125.237 319.618 127.569 314.436 127.582L216.686 127.589Z"/>
	<path fill="#DFFFF1" transform="scale(2 2)" d="M199.546 166.622C199.591 169.368 200.138 173.267 199.034 175.785C197.409 179.486 191.924 178.895 190.852 175.184C190.146 172.741 190.172 150.903 190.605 147.825C191.487 141.55 195.987 138.123 201.977 136.694C207.178 136.385 222.739 134.805 222.382 141.803C221.966 149.93 204.513 142.712 200.501 146.999C198.72 148.902 199.534 163.451 199.546 166.622Z"/>
	<path fill="#DFFFF1" transform="scale(2 2)" d="M257.438 421.158C234.275 422.323 230.262 389.068 254.793 385.833C276.656 383.788 281.856 418.066 257.438 421.158ZM254.793 394.784C242.562 397.833 245.17 412.969 257.438 412.246C268.306 409.439 266.678 394.372 254.793 394.784Z"/>
</svg>
