<?xml version="1.0" encoding="utf-8" ?>
<svg xmlns="http://www.w3.org/2000/svg" xmlns:xlink="http://www.w3.org/1999/xlink" width="1020" height="1020">
	<path fill="#FFF2E2" transform="scale(1.99219 1.99219)" d="M112.083 314.009L112.081 161.851C112.07 144.433 111.611 127.849 134.144 125.764L370.241 125.746C383.984 125.723 397.347 128.344 400.027 145.102C400.808 149.985 400.295 156.317 400.294 161.343L400.287 314.771C408.196 322.536 415.173 331.339 422.573 339.588L433.18 351.19C435.328 353.555 438.948 356.245 438.914 359.705C438.853 365.945 434.808 372.748 430.503 377.026C421.263 386.208 408.978 385.627 396.919 385.628L376.625 385.613L106.162 385.622C102.836 385.636 99.3803 385.877 96.0692 385.58C82.907 384.398 74.4138 371.184 72.4572 359.17C76.0174 353.056 86.1044 342.809 91.0155 337.437L112.083 314.009ZM134.144 134.771C118.03 137.476 121.394 151.927 121.399 163.928L121.4 311.494L145.319 311.483C149.335 311.484 153.644 311.137 157.61 311.666C161.522 312.187 162.712 317.376 159.639 319.795C156.889 321.961 148.643 320.748 145.276 320.751L118.419 320.766C109.461 330.557 95.9012 344.288 88.2376 354.787L378.625 354.787L423.568 354.787C415.607 344.992 401.815 328.991 392.64 320.766L367.355 320.775C363.334 320.776 358.912 321.148 354.938 320.631C350.146 320.007 349.804 312.327 354.661 311.635C358.452 311.095 362.648 311.469 366.494 311.471L391.101 311.494L391.115 163.152C391.13 141.258 392.561 134.696 369.382 134.748L189.751 134.771C171.572 134.771 153.362 134.538 135.187 134.756L134.144 134.771ZM101.651 364.209L83.7441 364.209C89.3984 377.367 98.2071 376.364 110.456 376.253L394.272 376.251C398.189 376.245 405.837 375.813 409.422 376.257C417.279 375.103 424.811 371.898 427.965 364.209L101.651 364.209Z"/>
	<path fill="#FFF2E2" transform="scale(1.99219 1.99219)" d="M256.798 147.116C250.072 147.268 249.739 140.094 255.007 137.502C261.874 137.145 262.788 144.915 256.798 147.116Z"/>
	<path fill="#FFF2E2" transform="scale(1.99219 1.99219)" d="M374.726 305.009C370.482 305.231 366.114 305.013 361.857 305.013L154.495 305.024C128.195 305.057 129.182 303.952 129.19 280.653L129.193 188.068C129.192 177.601 128.76 166.923 129.281 156.478C129.507 151.939 132.296 149.308 136.728 148.489C142.993 148.32 149.308 148.487 155.578 148.487L353.318 148.48C366.039 148.471 382.18 143.816 382.691 160.388C382.935 168.296 382.729 176.277 382.724 184.192L382.716 273.237C382.719 284.583 386.384 299.468 374.726 305.009ZM184.436 157.661L138.49 157.661L138.488 275.913C138.492 299.492 133.931 295.653 156.233 295.655L328.375 295.667C333.899 295.669 370.592 296.219 372.652 295.207C374.601 292.56 373.567 279.591 373.563 276.076L373.549 157.661C366.609 157.437 359.602 157.659 352.653 157.66L184.436 157.661Z"/>
	<path fill="#FFF2E2" transform="scale(1.99219 1.99219)" d="M199.852 320.766C195.357 321.382 173.99 321.149 169.967 320.64C164.915 320.001 165.156 313.894 168.686 311.494C174.82 311.012 193.836 310.908 199.205 311.74C204.474 312.556 203.576 318.589 199.852 320.766Z"/>
	<path fill="#FFF2E2" transform="scale(1.99219 1.99219)" d="M301.002 320.766C293.805 320.873 213.69 321.607 210.536 320.483C206.209 318.941 207.154 312.986 211.232 311.494L267.073 311.496C272.867 311.495 298.665 310.375 302.386 311.96C306.904 313.884 304.912 319.551 301.002 320.766Z"/>
	<path fill="#FFF2E2" transform="scale(1.99219 1.99219)" d="M342.078 320.766L323.443 320.793C320.203 320.796 316.617 321.099 313.418 320.616C307.844 319.775 307.527 312.313 314.236 311.494C318.962 311.489 341.633 310.868 344.375 312.094C348.736 314.044 346.989 319.713 342.078 320.766Z"/>
	<path fill="#FFF2E2" transform="scale(1.99219 1.99219)" d="M276.319 343.562C264.179 343.735 248.159 344.418 236.176 343.643C229.506 343.212 228.843 335.235 234.995 333.561C248.096 332.998 264.333 333.158 277.461 333.561C281.328 337.008 281.263 341.491 276.319 343.562Z"/>
</svg>
