<?xml version="1.0" encoding="utf-8" ?>
<svg xmlns="http://www.w3.org/2000/svg" xmlns:xlink="http://www.w3.org/1999/xlink" width="1024" height="1024">
	<path fill="#6A994E" transform="scale(2 2)" d="M183.113 326.921L210.543 326.905C214.856 326.906 219.75 326.455 224 327.112C228.307 327.777 227.727 332.693 224.634 334.499C222.261 334.693 219.816 334.529 217.433 334.517L192.118 334.508C188.645 334.51 179.827 335.88 180.916 329.995C181.192 328.505 181.918 327.773 183.113 326.921Z"/>
	<path fill="#6A994E" transform="scale(2 2)" d="M188.906 310.93L219.686 310.927C224.636 310.923 229.931 310.508 234.844 310.983C238.795 311.364 242.809 318.944 231.25 318.622L200.739 318.632C197.544 318.632 184.308 319.593 182.184 317.764C176.303 312.697 184.804 310.896 188.906 310.93Z"/>
	<path fill="#6A994E" transform="scale(2 2)" d="M356.354 394.795C360.516 395.237 360.5 398.067 360.502 401.64L360.465 418.142C360.464 422.601 360.914 427.768 359.804 432.116C355.958 447.18 342.59 446.307 330.921 446.277L217.001 446.27C214.676 445.972 213.297 444.663 213.382 442.197C213.54 437.631 222.305 438.816 225.403 438.818L329.962 438.846C337.502 438.873 349.382 440.682 352.14 431.093C353.756 425.473 352.418 404.546 352.655 397.484C353.781 395.976 354.573 395.405 356.354 394.795Z"/>
	<path fill="#6A994E" transform="scale(2 2)" d="M254.633 361.258C260.601 360.373 267.421 362.665 272.146 366.279C291.149 380.819 281.554 410.706 258.782 413.504C221.634 414.351 222.061 362.489 254.633 361.258ZM255.683 368.608C229.785 370.288 234.408 407.299 257.062 405.962C281.863 403.151 279.417 368.033 255.683 368.608Z"/>
	<path fill="#6A994E" transform="scale(2 2)" d="M351.632 78.7365C351.627 77.5713 351.236 77.1073 350.577 76.1947C349.8 75.1198 351.076 66.3772 356.008 72.7263C363.955 82.9572 358.401 95.4177 360.46 103.584L360.459 306.933C360.459 312.872 360.929 368.965 360.162 370.989C359.518 372.687 357.083 374.331 355.263 373.531C351.567 371.905 352.605 366.165 352.626 362.861L352.64 100.147C352.639 93.2544 353.968 85.36 351.632 78.7365Z"/>
	<path fill="#A7C957" transform="scale(2 2)" d="M151.26 207.061L151.251 96.7413C151.249 91.7713 150.907 86.3708 151.719 81.4603C154.831 62.6532 173.376 64.6329 187.009 64.6582L340.144 64.5831C356.462 64.5029 360.508 76.6396 360.489 90.6261L360.46 103.584C358.401 95.4177 363.955 82.9572 356.008 72.7263C351.076 66.3772 349.8 75.1198 350.577 76.1947C351.236 77.1073 351.627 77.5713 351.632 78.7365C344.637 68.8321 333.221 71.9595 322.084 71.9625L185.404 71.9671C156.786 71.8919 158.736 76.5285 158.737 100.664L158.748 243.522C158.978 248.371 158.753 253.338 158.752 258.204L158.758 411.036C158.759 420.802 156.549 434.489 168.72 438.249C171.321 439.053 201.594 436.295 191.932 445.437C190.199 447.076 180.367 446.276 177.936 446.267C149.52 446.165 151.262 429.305 151.264 406.595L151.26 207.061Z"/>
	<defs>
		<linearGradient id="gradient_0" gradientUnits="userSpaceOnUse" x1="168.68039" y1="106.92155" x2="342.94565" y2="268.7312">
			<stop offset="0" stop-color="#A7C957"/>
			<stop offset="1" stop-color="#6A994E"/>
		</linearGradient>
	</defs>
	<path fill="url(#gradient_0)" transform="scale(2 2)" d="M182.297 94.5377C190.299 94.0994 198.536 94.5386 206.568 94.5398L303.573 94.5351C311.911 94.5299 320.492 94.1148 328.807 94.6516C338.164 95.2556 338.32 103.84 338.298 110.864L338.272 138.822C338.284 144.333 338.945 149.855 335.531 154.555C338.895 157.895 338.257 161.486 338.261 165.848L338.272 195.044C338.282 199.965 339.588 205.151 335.531 208.738C338.543 213.498 338.271 216.74 338.264 222.196L338.263 259.274C338.258 268.054 340.311 279.402 328.697 281.391C318.863 282.142 308.725 281.39 298.856 281.389L199.846 281.391C171.333 281.4 173.941 282.101 173.989 256.781L173.795 217.984C173.743 214.174 174.042 211.571 176.772 208.738C172.282 203.574 173.976 197.922 173.98 191.535C173.985 183.96 171.616 159.217 176.772 154.555C175.791 153.513 174.719 152.236 174.367 150.819C173.356 146.749 173.591 110.275 174.139 104.286C174.592 99.3277 177.258 95.729 182.297 94.5377ZM239.231 212.331L204.711 212.324C174.692 212.328 181.621 208.919 181.625 240.804C181.626 245.826 180.143 272.522 182.873 273.37C185.983 274.335 206.055 273.749 210.649 273.746L274.188 273.751L310.842 273.754C331.331 273.762 330.961 278.946 330.888 260.694L330.861 243.86C330.858 238.151 332.651 216.462 329.052 212.7L328.833 212.467C328.788 212.421 328.743 212.376 328.697 212.331C325.2 212.06 321.635 212.302 318.126 212.321L239.231 212.331ZM190.222 101.875C188.491 101.869 183.5 101.46 182.351 102.81C181.208 104.152 181.01 145.628 181.877 148.72C182.708 151.684 199.201 150.355 202.25 150.35L322.625 150.345C327.187 150.499 330.317 151.173 330.804 145.77C331.356 139.653 330.857 132.844 330.872 126.638L330.887 112.795C330.886 110.428 331.694 104.639 330.122 102.7C325.291 101.181 314.718 101.872 309.237 101.871L190.222 101.875ZM187.042 158.027C185.473 158.142 183.417 158.063 182.248 159.286C180.67 160.934 181.61 180.607 181.609 183.919C181.608 186.373 180.772 203.598 182.807 204.335C185.397 205.272 217.048 204.74 222.776 204.74L325.603 204.741C331.663 204.867 330.832 203.041 330.882 197.39L330.873 177.044C330.977 154.392 333.373 158.019 310.921 158.019L187.042 158.027Z"/>
	<path fill="#A7C957" transform="scale(2 2)" d="M232.345 176.139C235.242 176.094 248.394 176.416 241.445 182.867C239.134 185.014 231.244 183.871 228.333 183.857L209.879 183.85C204.212 184.047 193.268 182.478 201.83 176.139L232.345 176.139Z"/>
	<path fill="#A7C957" transform="scale(2 2)" d="M203.048 122.031C208.437 121.963 241.774 120.281 242.858 124.657C243.456 127.074 241.437 129.206 239.231 129.688L217.094 129.682C214.109 129.702 193.984 131.815 200.028 123.535C200.811 122.463 201.801 122.253 203.048 122.031Z"/>
	<path fill="#A7C957" transform="scale(2 2)" d="M203.048 237.467C208.381 237.472 237.811 236.908 240.482 237.965C244.688 239.63 242.715 244.277 239.231 245.252L213.78 245.239C210.29 245.238 206.1 245.657 202.688 245.274C197.784 244.724 198.407 238.016 203.048 237.467Z"/>
</svg>
